<?xml version="1.0" encoding="utf-8"?>
<!-- Generator: Adobe Illustrator 25.0.0, SVG Export Plug-In . SVG Version: 6.00 Build 0)  -->
<svg version="1.1" id="Vrstva_1" xmlns="http://www.w3.org/2000/svg" xmlns:xlink="http://www.w3.org/1999/xlink" x="0px" y="0px"
	 viewBox="0 0 512 512" style="enable-background:new 0 0 512 512;" xml:space="preserve">
<style type="text/css">
	.st0{fill:#5DC0A3;}
</style>
<path class="st0" d="M482,83H30C13.5,83,0,96.5,0,113v100c0,36.3,28.1,66.5,63.7,69.7c7.5,10.3,19.4,16.5,32.3,16.5h320
	c12.9,0,24.8-6.2,32.3-16.5c35.6-3.2,63.7-33.4,63.7-69.7V113C512,96.5,498.5,83,482,83z M106,103h300v40H106V103z M436,259.2
	c0,2.4-0.4,4.8-1.3,7c-0.3,0.7-0.6,1.5-1,2.2c0,0,0,0,0,0c-3.5,6.7-10.3,10.8-17.7,10.8H96c-7.5,0-14.2-4.1-17.7-10.8
	c-1.5-2.9-2.3-5.9-2.3-9.2h70c5.5,0,10-4.5,10-10c0-5.5-4.5-10-10-10H76v-20h360V259.2z M492,213c0,22.6-15.3,41.9-36,48
	c0-0.2,0-0.4,0-0.6c0-0.4,0-0.8,0-1.2v-50c0-5.5-4.5-10-10-10H66c-5.5,0-10,4.5-10,10v50c0,0.4,0,0.8,0,1.2c0,0.2,0,0.4,0,0.6
	c-20.8-6.1-36-25.4-36-48V113c0-5.5,4.5-10,10-10h56v50c0,5.5,4.5,10,10,10h320c5.5,0,10-4.5,10-10v-50h56c5.5,0,10,4.5,10,10V213z"
	/>
<path class="st0" d="M256,419c-5.5,0-10-4.5-10-10v-80c0-5.5,4.5-10,10-10s10,4.5,10,10v80C266,414.5,261.5,419,256,419z"/>
<path class="st0" d="M186,259.2c-5.5,0-10-4.5-10-10s4.5-10,10-10h0c5.5,0,10,4.5,10,10S191.5,259.2,186,259.2z"/>
<path class="st0" d="M106,429c-5.5,0-10-4.5-10-10s4.5-10,10-10c44.1,0,80-35.9,80-80c0-5.5,4.5-10,10-10s10,4.5,10,10
	C206,384.1,161.1,429,106,429z"/>
<path class="st0" d="M406,429c-55.1,0-100-44.9-100-100c0-5.5,4.5-10,10-10s10,4.5,10,10c0,44.1,35.9,80,80,80c5.5,0,10,4.5,10,10
	S411.5,429,406,429z"/>
</svg>
