<?xml version="1.0" encoding="utf-8"?>
<!-- Generator: Adobe Illustrator 25.0.0, SVG Export Plug-In . SVG Version: 6.00 Build 0)  -->
<svg version="1.1" id="Vrstva_1" xmlns="http://www.w3.org/2000/svg" xmlns:xlink="http://www.w3.org/1999/xlink" x="0px" y="0px"
	 viewBox="0 0 512 512" style="enable-background:new 0 0 512 512;" xml:space="preserve">
<style type="text/css">
	.st0{fill:#5DC0A3;}
</style>
<path class="st0" d="M462,106h-4c-4.6-22.8-24.8-40-49-40s-44.4,17.2-49,40h-55c-4.6-22.8-24.8-40-49-40s-44.4,17.2-49,40h-54
	c-4.6-22.8-24.8-40-49-40s-44.4,17.2-49,40h-5c-27.6,0-50,22.4-50,50v270c0,11,9,20,20,20h472c11,0,20-9,20-20V156
	C512,128.4,489.6,106,462,106z M409,86c13,0,24.2,8.4,28.3,20h-56.6C384.8,94.4,396,86,409,86z M256,86c13,0,24.2,8.4,28.3,20h-56.6
	C231.8,94.4,243,86,256,86z M104,86c13,0,24.2,8.4,28.3,20H75.7C79.8,94.4,91,86,104,86z M492,426l-472,0c0,0,0,0,0,0V186h472V426z
	 M492,166H20v-10c0-16.5,13.5-30,30-30h412c16.5,0,30,13.5,30,30V166z"/>
<path class="st0" d="M90.2,285.5c-16.5,0-30-13.5-30-30s13.5-30,30-30c16.5,0,30,13.5,30,30S106.8,285.5,90.2,285.5z M90.2,245.5
	c-5.5,0-10,4.5-10,10s4.5,10,10,10c5.5,0,10-4.5,10-10S95.7,245.5,90.2,245.5z"/>
<path class="st0" d="M191.2,285.5c-16.5,0-30-13.5-30-30s13.5-30,30-30c16.5,0,30,13.5,30,30S207.8,285.5,191.2,285.5z M191.2,245.5
	c-5.5,0-10,4.5-10,10s4.5,10,10,10c5.5,0,10-4.5,10-10S196.7,245.5,191.2,245.5z"/>
<path class="st0" d="M291.2,285.5c-16.5,0-30-13.5-30-30s13.5-30,30-30c16.5,0,30,13.5,30,30S307.8,285.5,291.2,285.5z M291.2,245.5
	c-5.5,0-10,4.5-10,10s4.5,10,10,10c5.5,0,10-4.5,10-10S296.7,245.5,291.2,245.5z"/>
<path class="st0" d="M392.2,285.5c-16.5,0-30-13.5-30-30s13.5-30,30-30c16.5,0,30,13.5,30,30S408.8,285.5,392.2,285.5z M392.2,245.5
	c-5.5,0-10,4.5-10,10s4.5,10,10,10c5.5,0,10-4.5,10-10S397.7,245.5,392.2,245.5z"/>
<path class="st0" d="M457.5,350c-5.5,0-10-4.5-10-10V235c0-5.5,4.5-10,10-10s10,4.5,10,10v105C467.5,345.5,463,350,457.5,350z"/>
<path class="st0" d="M457.5,386c-5.5,0-10-4.5-10-10c0-5.5,4.5-10,10-10h0c5.5,0,10,4.5,10,10C467.5,381.5,463,386,457.5,386z"/>
<path class="st0" d="M90.2,386.5c-16.5,0-30-13.5-30-30s13.5-30,30-30c16.5,0,30,13.5,30,30S106.8,386.5,90.2,386.5z M90.2,346.5
	c-5.5,0-10,4.5-10,10s4.5,10,10,10c5.5,0,10-4.5,10-10S95.7,346.5,90.2,346.5z"/>
<path class="st0" d="M191.2,386.5c-16.5,0-30-13.5-30-30s13.5-30,30-30c16.5,0,30,13.5,30,30S207.8,386.5,191.2,386.5z M191.2,346.5
	c-5.5,0-10,4.5-10,10s4.5,10,10,10c5.5,0,10-4.5,10-10S196.7,346.5,191.2,346.5z"/>
<path class="st0" d="M291.2,386.5c-16.5,0-30-13.5-30-30s13.5-30,30-30c16.5,0,30,13.5,30,30S307.8,386.5,291.2,386.5z M291.2,346.5
	c-5.5,0-10,4.5-10,10s4.5,10,10,10c5.5,0,10-4.5,10-10S296.7,346.5,291.2,346.5z"/>
<path class="st0" d="M392.2,386.5c-16.5,0-30-13.5-30-30s13.5-30,30-30c16.5,0,30,13.5,30,30S408.8,386.5,392.2,386.5z M392.2,346.5
	c-5.5,0-10,4.5-10,10s4.5,10,10,10c5.5,0,10-4.5,10-10S397.7,346.5,392.2,346.5z"/>
</svg>
