<?xml version="1.0" encoding="utf-8"?>
<!-- Generator: Adobe Illustrator 25.0.0, SVG Export Plug-In . SVG Version: 6.00 Build 0)  -->
<svg version="1.1" id="Vrstva_1" xmlns="http://www.w3.org/2000/svg" xmlns:xlink="http://www.w3.org/1999/xlink" x="0px" y="0px"
	 viewBox="0 0 60 60" style="enable-background:new 0 0 60 60;" xml:space="preserve">
<style type="text/css">
	.st0{fill:#5DC0A3;}
</style>
<path class="st0" d="M22.8,57.8L22.8,57.8c0.1-0.1,0.2-0.1,0.2-0.1c0.1,0,0.1-0.1,0.1-0.1l0.1-0.1l0.1-0.1l6.4-9.5
	c0.1-0.1,0.2-0.1,0.3-0.1l21.6,9.5c0.3,0.1,0.6,0.1,0.8,0c0.3-0.1,0.4-0.4,0.5-0.7L60,3.2V3.1C60,3,60,3,60,3l0,0V2.9
	c0-0.1,0-0.1,0-0.1s0-0.1-0.1-0.1c0-0.1-0.1-0.1-0.1-0.1s0,0-0.1-0.1s-0.1-0.1-0.1-0.1s-0.1,0-0.1-0.1c-0.1,0-0.1,0-0.1-0.1
	c-0.1,0-0.1,0-0.1,0c-0.1,0-0.1,0-0.1,0c-0.1,0-0.1,0-0.1,0c-0.1,0-0.1,0-0.1,0c-0.1,0-0.1,0-0.1,0h-0.1L0.5,33
	C0.2,33.2,0,33.5,0,33.9s0.2,0.7,0.5,0.8l14.1,7c0.1,0,0.1,0.1,0.1,0.1l6.9,15.6c0,0,0,0.1,0.1,0.1l0.1,0.1l0.1,0.1l0.1,0.1
	c0.1,0,0.1,0.1,0.1,0.1c0.2,0.1,0.3,0.1,0.5,0.1h0.1C22.7,57.9,22.7,57.9,22.8,57.8L22.8,57.8z M27.9,47.4L24,53
	c0,0.1-0.1,0.1-0.2,0.1h-0.1c-0.1,0-0.2-0.1-0.2-0.3l0.3-7.2c0-0.1,0-0.2,0.1-0.2s0.2-0.1,0.2,0l3.5,1.6c0.1,0,0.1,0.1,0.1,0.2
	C27.9,47.2,27.9,47.3,27.9,47.4z M57.5,6.5c0.1,0,0.2,0.2,0.1,0.3l-4.2,31.7c0,0.1-0.1,0.1-0.1,0.2c-0.1,0-0.2,0-0.2,0L49,36.8
	c-0.2-0.1-0.5-0.1-0.7,0s-0.4,0.3-0.5,0.5c-0.2,0.5,0,1,0.5,1.2l4.7,2.1c0.1,0,0.2,0.2,0.1,0.3l-1.9,14c0,0.1-0.1,0.1-0.1,0.2H51
	h-0.1l-26-11.4c-0.1,0-0.1-0.1-0.1-0.2c0-0.1,0-0.2,0.1-0.2L57.2,6.6C57.3,6.5,57.4,6.4,57.5,6.5z M15.2,39.8h-0.1L3.4,34
	c-0.1,0-0.1-0.1-0.1-0.2c0-0.1,0.1-0.2,0.1-0.2l4-2.1c0.1,0,0.2,0,0.2,0l3.8,1.9c0.5,0.2,1,0,1.2-0.4c0.2-0.5,0-1-0.4-1.2L10,30.6
	c-0.1,0-0.1-0.1-0.1-0.2s0.1-0.2,0.1-0.2L50.4,8.7c0.1-0.1,0.3,0,0.3,0.1c0.1,0.1,0.1,0.2,0,0.3L15.4,39.8
	C15.3,39.8,15.3,39.8,15.2,39.8z M22.3,43.3L22.3,43.3L22.3,43.3L22.3,43.3L22.3,43.3L22.3,43.3c-0.1,0.1-0.1,0.1-0.1,0.1
	s0,0.1-0.1,0.1v0.1c0,0.1,0,0.1,0,0.1c0,0.1,0,0.1,0,0.1l-0.3,8c0,0.1-0.1,0.2-0.2,0.2l0,0c-0.1,0-0.2-0.1-0.2-0.2l-4.7-10.5
	c0-0.1,0-0.2,0.1-0.3l29.5-25.7c0.1-0.1,0.3-0.1,0.3,0c0.1,0.1,0.1,0.2,0,0.3L22.3,43.3z"/>
<path class="st0" d="M22.7,57.9L22.7,57.9L22.7,57.9z"/>
<path class="st0" d="M14.6,34.8c0.5,0.3,1,0,1.3-0.4c0.2-0.5,0-1-0.4-1.2l0,0c-0.1-0.1-0.3-0.1-0.4-0.1c-0.1,0-0.2,0-0.3,0
	c-0.2,0.1-0.4,0.2-0.5,0.5S14,34,14.1,34.3S14.3,34.7,14.6,34.8z"/>
<path class="st0" d="M44.8,37.3L44.8,37.3L44.8,37.3z"/>
<path class="st0" d="M45,37.1L45,37.1c0.5,0.2,1,0,1.2-0.5c0.1-0.2,0.1-0.5,0-0.7s-0.3-0.4-0.5-0.5c-0.1-0.1-0.3-0.1-0.4-0.1
	c-0.4,0-0.7,0.2-0.8,0.5c-0.1,0.2-0.1,0.5,0,0.7C44.6,36.8,44.7,37,45,37.1L45,37.1z"/>
</svg>
