<?xml version="1.0" encoding="utf-8"?>
<!-- Generator: Adobe Illustrator 25.0.0, SVG Export Plug-In . SVG Version: 6.00 Build 0)  -->
<svg version="1.1" id="Vrstva_1" xmlns="http://www.w3.org/2000/svg" xmlns:xlink="http://www.w3.org/1999/xlink" x="0px" y="0px"
	 viewBox="0 0 124 124" style="enable-background:new 0 0 124 124;" xml:space="preserve">
<style type="text/css">
	.st0{fill:#2699FB;}
	.st1{fill:#BCE0FD;}
	.st2{fill:#FFFFFF;}
	.st3{fill:none;stroke:#FFFFFF;stroke-miterlimit:10;stroke-dasharray:4.9439,7.9103;}
	.st4{enable-background:new    ;}
	.st5{fill-rule:evenodd;clip-rule:evenodd;fill:#FFFFFF;}
	.st6{fill:#5DC0A3;}
	.st7{fill:#1C1C1C;}
	.st8{fill:none;stroke:#000000;stroke-width:1.875;stroke-linecap:round;stroke-linejoin:round;stroke-miterlimit:10;}
	.st9{fill:#00FF00;}
	.st10{clip-path:url(#SVGID_2_);}
</style>
<g id="Circle" transform="translate(-590 -250)">
	<circle id="Ellipse_106_1_" class="st2" cx="652" cy="312" r="62"/>
	<g class="st4">
		<path class="st6" d="M631.8,317v-10h1.3v8.8h4.9v1.2H631.8z"/>
		<path class="st6" d="M639.2,312.1c0-1.7,0.4-3,1.3-3.9c0.9-0.9,2-1.4,3.5-1.4c0.9,0,1.8,0.2,2.5,0.7c0.7,0.4,1.3,1.1,1.7,1.8
			c0.4,0.8,0.6,1.7,0.6,2.7c0,1-0.2,1.9-0.6,2.7s-1,1.4-1.7,1.8c-0.8,0.4-1.6,0.6-2.4,0.6c-0.9,0-1.8-0.2-2.5-0.7
			c-0.7-0.5-1.3-1.1-1.7-1.9S639.2,313,639.2,312.1z M640.6,312.1c0,1.2,0.3,2.2,1,2.9c0.6,0.7,1.5,1,2.4,1c1,0,1.8-0.4,2.5-1.1
			c0.6-0.7,1-1.7,1-3c0-0.8-0.1-1.5-0.4-2.1c-0.3-0.6-0.7-1.1-1.2-1.4c-0.5-0.3-1.1-0.5-1.8-0.5c-0.9,0-1.7,0.3-2.4,1
			C640.9,309.6,640.6,310.6,640.6,312.1z"/>
		<path class="st6" d="M655.2,313.1v-1.2l4.2,0v3.7c-0.7,0.5-1.3,0.9-2,1.2c-0.7,0.3-1.4,0.4-2.1,0.4c-1,0-1.9-0.2-2.7-0.6
			c-0.8-0.4-1.4-1-1.8-1.8s-0.6-1.7-0.6-2.7c0-1,0.2-1.9,0.6-2.7c0.4-0.8,1-1.5,1.8-1.9s1.6-0.6,2.6-0.6c0.7,0,1.4,0.1,2,0.4
			c0.6,0.2,1,0.6,1.4,1c0.3,0.4,0.6,1,0.8,1.6l-1.2,0.3c-0.2-0.5-0.3-0.9-0.6-1.2c-0.2-0.3-0.5-0.5-1-0.7c-0.4-0.2-0.9-0.3-1.4-0.3
			c-0.6,0-1.1,0.1-1.6,0.3c-0.4,0.2-0.8,0.4-1.1,0.7c-0.3,0.3-0.5,0.6-0.6,1c-0.3,0.6-0.4,1.3-0.4,2c0,0.9,0.2,1.6,0.5,2.2
			s0.8,1,1.3,1.3s1.2,0.4,1.9,0.4c0.6,0,1.1-0.1,1.7-0.3c0.5-0.2,1-0.5,1.2-0.7v-1.9H655.2z"/>
		<path class="st6" d="M661,312.1c0-1.7,0.4-3,1.3-3.9c0.9-0.9,2-1.4,3.5-1.4c0.9,0,1.8,0.2,2.5,0.7c0.7,0.4,1.3,1.1,1.7,1.8
			c0.4,0.8,0.6,1.7,0.6,2.7c0,1-0.2,1.9-0.6,2.7s-1,1.4-1.7,1.8c-0.8,0.4-1.6,0.6-2.4,0.6c-0.9,0-1.8-0.2-2.5-0.7
			c-0.7-0.5-1.3-1.1-1.7-1.9S661,313,661,312.1z M662.4,312.1c0,1.2,0.3,2.2,1,2.9c0.6,0.7,1.5,1,2.4,1c1,0,1.8-0.4,2.5-1.1
			c0.6-0.7,1-1.7,1-3c0-0.8-0.1-1.5-0.4-2.1c-0.3-0.6-0.7-1.1-1.2-1.4c-0.5-0.3-1.1-0.5-1.8-0.5c-0.9,0-1.7,0.3-2.4,1
			C662.7,309.6,662.4,310.6,662.4,312.1z"/>
	</g>
</g>
</svg>
