<?xml version="1.0" encoding="utf-8"?>
<!-- Generator: Adobe Illustrator 25.0.0, SVG Export Plug-In . SVG Version: 6.00 Build 0)  -->
<svg version="1.1" id="Vrstva_1" xmlns="http://www.w3.org/2000/svg" xmlns:xlink="http://www.w3.org/1999/xlink" x="0px" y="0px"
	 viewBox="0 0 60 60" style="enable-background:new 0 0 60 60;" xml:space="preserve">
<style type="text/css">
	.st0{fill:#5DC0A3;}
</style>
<g>
	<path class="st0" d="M22.3,25.8c-0.4-0.4-1-0.4-1.3,0c-0.4,0.4-0.4,1,0,1.3L37.8,44c0.2,0.2,0.4,0.3,0.7,0.3s0.5-0.1,0.7-0.3
		c0.4-0.4,0.4-1,0-1.3L22.3,25.8z"/>
	<path class="st0" d="M32.8,26.1c0.2,0.2,0.4,0.3,0.7,0.3s0.5-0.1,0.7-0.3l8.2-8.2c0.2-0.2,0.3-0.4,0.3-0.7s-0.1-0.5-0.3-0.7
		L37,11.2c-0.4-0.4-1-0.4-1.3,0l-8.2,8.2c-0.4,0.4-0.4,1,0,1.3L32.8,26.1z M36.3,13.2l4,4l-6.9,6.9l-4-4L36.3,13.2z"/>
	<path class="st0" d="M47.8,22c-0.4-0.4-1-0.4-1.3,0l-8.2,8.2c-0.4,0.4-0.4,1,0,1.3c0.2,0.2,0.4,0.3,0.7,0.3s0.5-0.1,0.7-0.3
		l8.2-8.2C48.1,22.9,48.1,22.3,47.8,22z"/>
	<path class="st0" d="M50.7,24.9c-0.4-0.4-1-0.4-1.3,0l-8.2,8.2c-0.4,0.4-0.4,1,0,1.3c0.2,0.2,0.4,0.3,0.7,0.3s0.5-0.1,0.7-0.3
		l8.2-8.2C51,25.9,51,25.3,50.7,24.9z"/>
	<path class="st0" d="M50.5,29.8l-6.3,6.3c-0.4,0.4-0.4,1,0,1.3c0.2,0.2,0.4,0.3,0.7,0.3s0.5-0.1,0.7-0.3l6.3-6.3
		c0.4-0.4,0.4-1,0-1.3C51.4,29.4,50.8,29.4,50.5,29.8z"/>
	<path class="st0" d="M12.2,34.6l-5.6,5.6c-0.4,0.4-0.4,1,0,1.3c0.2,0.2,0.4,0.3,0.7,0.3s0.5-0.1,0.7-0.3l5.6-5.6
		c0.4-0.4,0.4-1,0-1.3C13.2,34.2,12.6,34.2,12.2,34.6z"/>
	<path class="st0" d="M14.8,32c-0.4,0.4-0.4,1,0,1.3c0.2,0.2,0.4,0.3,0.7,0.3s0.5-0.1,0.7-0.3l0,0c0.4-0.4,0.4-1,0-1.3
		C15.8,31.6,15.2,31.6,14.8,32z"/>
	<path class="st0" d="M59.1,26.3L38.6,5.8c-0.6-0.6-1.5-1-2.3-1s-1.7,0.3-2.3,1l-33,33c-0.7,0.7-1,1.5-1,2.3v0.1
		c0,0.8,0.3,1.6,0.9,2.2L13.5,56H0.9C0.4,56,0,56.5,0,57s0.4,0.9,0.9,0.9h49.9c0.5,0,0.9-0.4,0.9-0.9s-0.3-1-0.9-1H34l25.1-25.1
		c0.5-0.5,0.8-1.2,0.9-1.9v-0.8C59.9,27.6,59.6,26.9,59.1,26.3z M57.8,29.6L31.3,56H16.2L2.3,42.1c-0.3-0.3-0.4-0.6-0.4-1
		s0.1-0.7,0.4-1l33-33c0.3-0.3,0.6-0.4,1-0.4s0.7,0.1,1,0.4l20.5,20.5C58.3,28.2,58.3,29.1,57.8,29.6z"/>
	<path class="st0" d="M27,42.8c-0.4-0.4-1-0.4-1.3,0L17.4,51c-0.4,0.4-0.4,1,0,1.3c0.2,0.2,0.4,0.3,0.7,0.3s0.5-0.1,0.7-0.3l8.2-8.2
		C27.3,43.7,27.3,43.1,27,42.8z"/>
	<path class="st0" d="M28.6,45.7l-8.2,8.2c-0.4,0.4-0.4,1,0,1.3c0.2,0.2,0.4,0.3,0.7,0.3s0.5-0.1,0.7-0.3L30,47c0.4-0.4,0.4-1,0-1.3
		C29.5,45.3,28.9,45.3,28.6,45.7z"/>
	<path class="st0" d="M42.9,6c0.2,0,0.5-0.1,0.7-0.3l2.1-2.1c0.4-0.4,0.4-1,0-1.3c-0.4-0.4-1-0.4-1.3,0l-2.1,2.1
		c-0.4,0.4-0.4,1,0,1.3C42.4,6,42.7,6,42.9,6z"/>
	<path class="st0" d="M49.7,12.8c0.2,0,0.5-0.1,0.7-0.3l4.3-4.3c0.4-0.4,0.4-1,0-1.3c-0.4-0.4-1-0.4-1.3,0L49,11.2
		c-0.4,0.4-0.4,1,0,1.3C49.2,12.7,49.5,12.8,49.7,12.8z"/>
	<path class="st0" d="M56.3,19.4c0.2,0,0.5-0.1,0.7-0.3l2.1-2.1c0.4-0.4,0.4-1,0-1.3c-0.4-0.4-1-0.4-1.3,0l-2.1,2.1
		c-0.4,0.4-0.4,1,0,1.3C55.8,19.3,56.1,19.4,56.3,19.4z"/>
</g>
</svg>
