<?xml version="1.0" encoding="utf-8"?>
<!-- Generator: Adobe Illustrator 25.0.0, SVG Export Plug-In . SVG Version: 6.00 Build 0)  -->
<svg version="1.1" id="Vrstva_1" xmlns="http://www.w3.org/2000/svg" xmlns:xlink="http://www.w3.org/1999/xlink" x="0px" y="0px"
	 viewBox="0 0 200 200" style="enable-background:new 0 0 200 200;" xml:space="preserve">
<style type="text/css">
	.st0{fill:#2699FB;}
	.st1{fill:#BCE0FD;}
	.st2{fill:#FFFFFF;}
	.st3{fill:none;stroke:#FFFFFF;stroke-miterlimit:10;stroke-dasharray:4.9439,7.9103;}
	.st4{enable-background:new    ;}
	.st5{fill-rule:evenodd;clip-rule:evenodd;fill:#FFFFFF;}
	.st6{fill:#1C1C1C;}
	.st7{fill:none;stroke:#000000;stroke-width:1.875;stroke-linecap:round;stroke-linejoin:round;stroke-miterlimit:10;}
	.st8{fill:#00FF00;}
	.st9{clip-path:url(#SVGID_2_);}
</style>
<g id="Ellipse_106">
	<path class="st2" d="M100,2c54,0,98,44,98,98s-44,98-98,98S2,154,2,100S46,2,100,2 M100,0C44.8,0,0,44.8,0,100s44.8,100,100,100
		s100-44.8,100-100S155.2,0,100,0L100,0z"/>
</g>
<g id="Ellipse_106_2_">
	<circle class="st3" cx="100" cy="100" r="90"/>
</g>
<g>
	<g class="st4">
		<path class="st2" d="M66.2,108V90.9h2.3V106h8.5v2H66.2z"/>
		<path class="st2" d="M78.9,99.7c0-2.9,0.8-5.1,2.3-6.7s3.5-2.4,5.9-2.4c1.6,0,3,0.4,4.3,1.1s2.2,1.8,2.9,3.2s1,2.9,1,4.6
			c0,1.7-0.4,3.3-1.1,4.7s-1.7,2.4-3,3.1s-2.7,1.1-4.2,1.1c-1.6,0-3.1-0.4-4.3-1.2s-2.2-1.8-2.9-3.2S78.9,101.2,78.9,99.7z
			 M81.3,99.7c0,2.1,0.6,3.7,1.7,4.9s2.5,1.8,4.2,1.8c1.7,0,3.1-0.6,4.2-1.8s1.7-2.9,1.7-5.1c0-1.4-0.2-2.6-0.7-3.7
			s-1.2-1.9-2.1-2.4s-1.9-0.9-3.1-0.9c-1.6,0-3,0.6-4.2,1.7S81.3,97.1,81.3,99.7z"/>
		<path class="st2" d="M106.3,101.3v-2l7.3,0v6.4c-1.1,0.9-2.3,1.6-3.5,2s-2.4,0.7-3.7,0.7c-1.7,0-3.2-0.4-4.6-1.1s-2.4-1.8-3.1-3.1
			s-1.1-2.9-1.1-4.6c0-1.7,0.3-3.2,1-4.7s1.7-2.5,3-3.2s2.8-1.1,4.5-1.1c1.2,0,2.4,0.2,3.4,0.6s1.8,1,2.4,1.7s1,1.7,1.3,2.8
			l-2.1,0.6c-0.3-0.9-0.6-1.6-1-2.1s-0.9-0.9-1.6-1.2s-1.5-0.5-2.4-0.5c-1,0-1.9,0.2-2.7,0.5s-1.4,0.7-1.8,1.2s-0.8,1.1-1.1,1.7
			c-0.4,1.1-0.7,2.2-0.7,3.5c0,1.5,0.3,2.8,0.8,3.8s1.3,1.8,2.3,2.3s2.1,0.8,3.2,0.8c1,0,1.9-0.2,2.9-0.6s1.6-0.8,2.1-1.2v-3.2
			H106.3z"/>
		<path class="st2" d="M116.3,99.7c0-2.9,0.8-5.1,2.3-6.7c1.5-1.6,3.5-2.4,5.9-2.4c1.6,0,3,0.4,4.3,1.1s2.2,1.8,2.9,3.2s1,2.9,1,4.6
			c0,1.7-0.4,3.3-1.1,4.7s-1.7,2.4-3,3.1s-2.7,1.1-4.2,1.1c-1.6,0-3.1-0.4-4.3-1.2s-2.2-1.8-2.9-3.2S116.3,101.2,116.3,99.7z
			 M118.6,99.7c0,2.1,0.6,3.7,1.7,4.9s2.5,1.8,4.2,1.8c1.7,0,3.1-0.6,4.2-1.8s1.7-2.9,1.7-5.1c0-1.4-0.2-2.6-0.7-3.7
			s-1.2-1.9-2.1-2.4s-1.9-0.9-3.1-0.9c-1.6,0-3,0.6-4.2,1.7S118.6,97.1,118.6,99.7z"/>
	</g>
</g>
</svg>
