<?xml version="1.0" encoding="utf-8"?>
<!-- Generator: Adobe Illustrator 25.0.0, SVG Export Plug-In . SVG Version: 6.00 Build 0)  -->
<svg version="1.1" id="Vrstva_1" xmlns="http://www.w3.org/2000/svg" xmlns:xlink="http://www.w3.org/1999/xlink" x="0px" y="0px"
	 viewBox="0 0 23.2 23" style="enable-background:new 0 0 23.2 23;" xml:space="preserve">
<style type="text/css">
	.st0{fill:#2699FB;}
	.st1{fill:#BCE0FD;}
	.st2{fill:#F1F9FF;}
	.st3{fill:none;stroke:#F1F9FF;stroke-miterlimit:10;stroke-dasharray:4.9439,7.9103;}
	.st4{enable-background:new    ;}
	.st5{fill:#FFFFFF;}
	.st6{fill-rule:evenodd;clip-rule:evenodd;fill:#FFFFFF;}
	.st7{fill:#1C1C1C;}
	.st8{fill:none;stroke:#000000;stroke-width:1.875;stroke-linecap:round;stroke-linejoin:round;stroke-miterlimit:10;}
	.st9{fill:#00FF00;}
	.st10{clip-path:url(#SVGID_2_);}
</style>
<path id="Path_2" class="st6" d="M7.4,20.9C14.8,21,20.8,15,20.9,7.6c0-0.1,0-0.2,0-0.2V6.7c0.9-0.7,1.7-1.5,2.3-2.5
	c-0.9,0.4-1.8,0.6-2.7,0.8c1-0.6,1.7-1.5,2.1-2.6c-0.9,0.5-1.9,0.9-3,1.2c-0.9-1-2.2-1.6-3.5-1.5c-2.6,0-4.7,2.2-4.8,4.8
	c0,0.3,0,0.7,0.1,1c-3.8-0.2-7.4-2-9.8-5C1.3,3.6,1,4.4,1,5.3c0,1.6,0.8,3.1,2.1,4c-0.8,0-1.5-0.2-2.2-0.6l0,0
	c0,2.3,1.6,4.2,3.9,4.6c-0.4,0.1-0.9,0.2-1.3,0.1c-0.3,0-0.6,0-0.9-0.1c0.6,2,2.5,3.3,4.5,3.4c-1.7,1.3-3.8,2.1-5.9,2.1
	c-0.4,0-0.8,0-1.2-0.1C2.1,20.2,4.7,21,7.4,20.9"/>
</svg>
