<?xml version="1.0" encoding="utf-8"?>
<!-- Generator: Adobe Illustrator 25.0.0, SVG Export Plug-In . SVG Version: 6.00 Build 0)  -->
<svg version="1.1" id="Vrstva_1" xmlns="http://www.w3.org/2000/svg" xmlns:xlink="http://www.w3.org/1999/xlink" x="0px" y="0px"
	 viewBox="0 0 23 23" style="enable-background:new 0 0 23 23;" xml:space="preserve">
<style type="text/css">
	.st0{fill:#2699FB;}
	.st1{fill:#BCE0FD;}
	.st2{fill:#F1F9FF;}
	.st3{enable-background:new    ;}
	.st4{fill:none;}
	.st5{fill:#FFFFFF;}
	.st6{fill-rule:evenodd;clip-rule:evenodd;fill:#FFFFFF;}
</style>
<g>
	<path class="st4" d="M1.9,21.3c-0.6-0.6-1-1.3-1.3-2.1c-0.3-0.9-0.5-1.9-0.5-2.8C0.1,15.7,0,14.9,0,14.2V23h5.5
		c-0.5-0.1-1-0.2-1.5-0.4C3.2,22.3,2.5,21.9,1.9,21.3z"/>
	<path class="st4" d="M19.2,0.6c0.8,0.3,1.5,0.7,2.1,1.3c0.6,0.6,1,1.3,1.3,2.1c0.2,0.5,0.3,1,0.4,1.5V0h-8.8c0.7,0,1.5,0.1,2.2,0.1
		C17.4,0.1,18.3,0.3,19.2,0.6z"/>
	<path class="st4" d="M0.6,4c0.3-0.8,0.7-1.5,1.3-2.1c0.6-0.6,1.3-1,2.1-1.3c0.9-0.3,1.9-0.5,2.8-0.5C7.6,0.1,8.3,0,9.1,0H0v9.1
		c0-0.7,0.1-1.5,0.1-2.2C0.1,5.9,0.2,4.9,0.6,4z"/>
	<path class="st4" d="M11.6,0h-0.8C11.1,0,11.4,0,11.6,0L11.6,0z"/>
	<path class="st4" d="M22.6,19.2c-0.5,1.6-1.8,2.8-3.4,3.4c-0.5,0.2-1,0.3-1.5,0.4H23v-5.3C22.9,18.2,22.8,18.7,22.6,19.2z"/>
	<path class="st5" d="M22.6,19.2c0.2-0.5,0.3-1,0.4-1.6V5.5c-0.1-0.5-0.2-1-0.4-1.5c-0.3-0.8-0.7-1.5-1.3-2.1
		c-0.6-0.6-1.3-1-2.1-1.3c-0.9-0.3-1.9-0.5-2.8-0.5C15.7,0.1,14.9,0,14.2,0h-2.6l0,0c-0.3,0-0.5,0-0.8,0H9.1C8.3,0,7.6,0.1,6.8,0.1
		c-1,0-1.9,0.2-2.8,0.5C3.2,0.9,2.5,1.3,1.9,1.9C1.3,2.5,0.9,3.2,0.6,4C0.2,4.9,0.1,5.9,0.1,6.8C0.1,7.6,0,8.3,0,9.1v5.1
		c0,0.7,0.1,1.5,0.1,2.2c0,1,0.2,1.9,0.5,2.8c0.3,0.8,0.7,1.5,1.3,2.1c0.6,0.6,1.3,1,2.1,1.3c0.5,0.2,1,0.3,1.5,0.4h12.2
		c0.5-0.1,1-0.2,1.5-0.4C20.8,22.1,22,20.8,22.6,19.2z M16.3,21c-1.2,0-1.5,0.1-4.6,0.1c-1.6,0.1-3.1,0-4.6-0.1
		c-0.7,0-1.5-0.1-2.2-0.4c-1-0.5-1.7-1.2-2.2-2.2c-0.3-0.7-0.4-1.4-0.4-2.2c0-1.2-0.1-1.5-0.1-4.6C2,10.1,2,8.5,2.2,7
		c0-0.7,0.1-1.5,0.4-2.2c0.2-0.5,0.5-0.9,0.9-1.3C3.8,3,4.2,2.7,4.8,2.6C5.5,2.3,6.2,2.2,7,2.2c1.5-0.1,3.1-0.2,4.6-0.1l0,0
		c1.6-0.1,3.1,0,4.6,0.1c0.7,0,1.5,0.1,2.2,0.4c1,0.5,1.7,1.2,2.2,2.2C20.9,5.5,21.1,6.2,21,7c0,1.2,0.1,1.5,0.1,4.6
		c0.1,1.6,0,3.1-0.1,4.6c0,0.7-0.1,1.5-0.4,2.2c-0.5,1-1.2,1.7-2.2,2.2C17.8,20.9,17,21.1,16.3,21z"/>
	<path class="st5" d="M11.6,5.7c-3.2-0.1-5.9,2.5-5.9,5.7c0,0.1,0,0.1,0,0.2c0,3.3,2.7,5.9,5.9,5.9s5.9-2.7,5.9-5.9
		S14.9,5.7,11.6,5.7z M15.5,11.6c0,2.1-1.6,3.8-3.7,3.9c0,0-0.1,0-0.1,0c-2.1,0-3.8-1.6-3.9-3.7c0,0,0-0.1,0-0.1
		c0-2.1,1.6-3.8,3.7-3.9c0,0,0.1,0,0.1,0c2.1,0,3.8,1.6,3.9,3.7C15.5,11.5,15.5,11.6,15.5,11.6z"/>
	<path class="st5" d="M17.8,4c-0.8,0-1.4,0.6-1.4,1.4c0,0.8,0.6,1.4,1.4,1.4s1.4-0.6,1.4-1.4C19.2,4.6,18.6,4,17.8,4z"/>
</g>
</svg>
