<?xml version="1.0" encoding="utf-8"?>
<!-- Generator: Adobe Illustrator 25.0.0, SVG Export Plug-In . SVG Version: 6.00 Build 0)  -->
<svg version="1.1" id="Vrstva_1" xmlns="http://www.w3.org/2000/svg" xmlns:xlink="http://www.w3.org/1999/xlink" x="0px" y="0px"
	 viewBox="0 0 512 512" style="enable-background:new 0 0 512 512;" xml:space="preserve">
<style type="text/css">
	.st0{fill:#5DC0A3;}
</style>
<path class="st0" d="M261,167c-5.5,0-10-4.5-10-10s4.5-10,10-10h0c5.5,0,10,4.5,10,10S266.5,167,261,167z"/>
<path class="st0" d="M437,75C388.7,26.6,324.4,0,256,0S123.3,26.6,75,75C26.6,123.3,0,187.6,0,256s26.6,132.7,75,181
	c48.3,48.4,112.6,75,181,75s132.7-26.6,181-75c48.4-48.3,75-112.6,75-181S485.4,123.3,437,75z M422.9,422.9
	C378.3,467.4,319,492,256,492s-122.3-24.6-166.9-69.1C44.6,378.3,20,319,20,256S44.6,133.7,89.1,89.1C133.7,44.6,193,20,256,20
	s122.3,24.6,166.9,69.1C467.4,133.7,492,193,492,256S467.4,378.3,422.9,422.9z"/>
<path class="st0" d="M256,50c-46,0-89.6,14.9-125.9,42.9c-2.3,1.8-3.7,4.4-3.9,7.3c-0.2,2.9,0.9,5.7,2.9,7.7l274.9,274.9
	c1.9,1.9,4.4,2.9,7.1,2.9c0.2,0,0.4,0,0.6,0c2.9-0.2,5.5-1.6,7.3-3.9C447.1,345.6,462,302,462,256C462,142.4,369.6,50,256,50z
	 M285.5,236H396v40h-70.5L285.5,236z M409.9,360.4L345.5,296H406c5.5,0,10-4.5,10-10v-60c0-5.5-4.5-10-10-10H265.5L151.6,102.1
	C182.4,81.1,218.3,70,256,70c102.6,0,186,83.4,186,186C442,293.7,430.9,329.6,409.9,360.4z"/>
<path class="st0" d="M382.9,404.1L107.9,129.1c-2-2-4.8-3.1-7.7-2.9c-2.9,0.2-5.5,1.6-7.3,3.9C64.9,166.4,50,210,50,256
	c0,113.6,92.4,206,206,206c46,0,89.6-14.9,125.9-42.9c2.3-1.8,3.7-4.4,3.9-7.3C385.9,408.9,384.9,406.1,382.9,404.1z M186,235.5
	l40.5,40.5H186V235.5z M256,442c-102.6,0-186-83.4-186-186c0-37.7,11.1-73.6,32.1-104.4l64.4,64.4H106c-5.5,0-10,4.5-10,10v60
	c0,5.5,4.5,10,10,10h140.5l113.9,113.9C329.6,430.9,293.7,442,256,442z M166,236v40h-50v-40H166z"/>
<path class="st0" d="M390,207c-5.3,0-9.7-4.1-10-9.4c-0.1-0.8-1.8-21-23.6-26.9c-15.1-4.1-26.6-14.8-33.2-30.9
	c-4.6-11.3-5.2-21.2-5.2-22.3c-0.2-5.5,4-10.2,9.5-10.4c5.5-0.2,10.2,4,10.4,9.5c0.1,1.3,1.8,28.9,23.6,34.8
	c28.7,7.8,37.7,32.9,38.4,45.1c0.3,5.5-3.9,10.2-9.4,10.6C390.4,207,390.2,207,390,207z"/>
<path class="st0" d="M330,207c-5.3,0-9.7-4.1-10-9.4c-0.1-0.8-1.8-21-23.6-26.9c-5.3-1.4-8.5-6.9-7-12.3c1.4-5.3,6.9-8.5,12.3-7
	c28.7,7.8,37.7,32.9,38.4,45.1c0.3,5.5-3.9,10.2-9.4,10.6C330.4,207,330.2,207,330,207z"/>
</svg>
