<?xml version="1.0" encoding="utf-8"?>
<!-- Generator: Adobe Illustrator 25.0.0, SVG Export Plug-In . SVG Version: 6.00 Build 0)  -->
<svg version="1.1" id="Vrstva_1" xmlns="http://www.w3.org/2000/svg" xmlns:xlink="http://www.w3.org/1999/xlink" x="0px" y="0px"
	 viewBox="0 0 512 512" style="enable-background:new 0 0 512 512;" xml:space="preserve">
<style type="text/css">
	.st0{fill:#5DC0A3;}
</style>
<path class="st0" d="M256,362c-86,0-156-70-156-156S170,50,256,50s156,70,156,156S342,362,256,362z M256,70c-75,0-136,61-136,136
	s61,136,136,136s136-61,136-136S331,70,256,70z"/>
<path class="st0" d="M256,312c-58.4,0-106-47.6-106-106s47.6-106,106-106s106,47.6,106,106S314.4,312,256,312z M256,120
	c-47.4,0-86,38.6-86,86s38.6,86,86,86s86-38.6,86-86S303.4,120,256,120z"/>
<path class="st0" d="M266,151h-40c-5.5,0-10,4.5-10,10v90c0,5.5,4.5,10,10,10s10-4.5,10-10v-35h30c16.5,0,30-13.5,30-30v-5
	C296,164.5,282.5,151,266,151z M276,186c0,5.5-4.5,10-10,10h-30v-25h30c5.5,0,10,4.5,10,10V186z"/>
<path class="st0" d="M256,0C142.4,0,50,92.6,50,206.4c0,104.3,117.7,221.7,188.1,291.8c3.8,3.8,7.4,7.4,10.9,10.8
	c0.5,0.5,0.9,0.9,1.5,1.2c0.1,0.1,0.3,0.2,0.4,0.3c0.6,0.3,1.1,0.6,1.7,0.8c0.2,0.1,0.3,0.1,0.5,0.2c0.9,0.3,1.9,0.4,3,0.4
	s2-0.2,3-0.4c0.2-0.1,0.3-0.1,0.5-0.2c0.6-0.2,1.2-0.5,1.7-0.8c0.1-0.1,0.3-0.2,0.4-0.3c0.5-0.4,1-0.8,1.5-1.2
	c4.5-4.5,9.3-9.3,14.3-14.3c69-68.5,184.6-183.2,184.6-288.4C462,92.6,369.6,0,256,0z M266,477.9v-45.1c0-5.5-4.5-10-10-10
	s-10,4.5-10,10v45C213.1,445,170.3,401.7,135.2,355C91.9,297.6,70,247.6,70,206.4C70,103.6,153.4,20,256,20s186,83.6,186,186.4
	C442,301.9,333.1,411.3,266,477.9z"/>
<path class="st0" d="M256,402c-5.5,0-10-4.5-10-10s4.5-10,10-10h0c5.5,0,10,4.5,10,10S261.5,402,256,402z"/>
</svg>
