<?xml version="1.0" encoding="utf-8"?>
<!-- Generator: Adobe Illustrator 25.0.0, SVG Export Plug-In . SVG Version: 6.00 Build 0)  -->
<svg version="1.1" id="Vrstva_1" xmlns="http://www.w3.org/2000/svg" xmlns:xlink="http://www.w3.org/1999/xlink" x="0px" y="0px"
	 viewBox="0 0 512 512" style="enable-background:new 0 0 512 512;" xml:space="preserve">
<style type="text/css">
	.st0{fill:#5DC0A3;}
</style>
<path class="st0" d="M211,250c-5.5,0-10-4.5-10-10s4.5-10,10-10h0c5.5,0,10,4.5,10,10S216.5,250,211,250z"/>
<path class="st0" d="M256,156c-3.7,0-7.2-2-9-5.5c-9.5-19-11.7-37-6.6-53.4c1.8-5.8,4.2-10.8,6.6-15.5c2.1-4.2,4.1-8.2,5.4-12.4
	c0,0,0-0.1,0-0.1c3.5-11.3,1.7-24.3-5.4-38.5c-2.5-4.9-0.5-10.9,4.5-13.4c4.9-2.5,10.9-0.5,13.4,4.5c9.5,19,11.7,37,6.6,53.4
	c-1.7,5.8-4.2,10.8-6.6,15.5c-2.1,4.2-4.1,8.2-5.4,12.4c0,0,0,0.1,0,0.1c-3.5,11.3-1.7,24.3,5.4,38.5c2.5,4.9,0.5,10.9-4.5,13.4
	C259,155.7,257.5,156,256,156z"/>
<path class="st0" d="M186,156c-3.5,0-7-1.9-8.8-5.2c-8.4-15.4-9.1-30.4-2.1-43.4c3.9-7.9,9.3-23,2-36.7c-2.6-4.9-0.8-10.9,4.1-13.5
	c4.9-2.6,10.9-0.8,13.5,4.1c8.6,16,7.9,35.6-1.9,55.2c-0.1,0.1-0.1,0.2-0.2,0.3c-3.8,6.9-3.1,15.1,2,24.4c2.6,4.9,0.9,10.9-4,13.6
	C189.3,155.6,187.6,156,186,156z"/>
<path class="st0" d="M316,156c-3.5,0-7-1.9-8.8-5.2c-8.4-15.4-9.1-30.4-2.1-43.4c3.9-7.9,9.3-23,2-36.7c-2.6-4.9-0.8-10.9,4.1-13.5
	c4.9-2.6,10.9-0.8,13.5,4.1c8.6,16,7.9,35.6-1.9,55.2c-0.1,0.1-0.1,0.2-0.2,0.3c-3.8,6.9-3.1,15.1,2,24.4c2.6,4.9,0.9,10.9-4,13.6
	C319.3,155.6,317.6,156,316,156z"/>
<path class="st0" d="M492,426H340.9c14.6-7.8,28.1-17.9,40.2-29.9c14.1-14.1,25.3-30.1,33.6-47.5c22.8-2.1,44.4-15.1,61.4-37
	c15.1-19.6,24.9-44.9,24.9-64.4c0-8.2-0.9-19.9-9.1-28c-10.4-10.2-26.8-9.9-51.6-9.4c-2.9,0.1-6,0.1-9.3,0.1v-4
	c0-16.5-13.5-30-30-30H111c-16.5,0-30,13.5-30,30v70c0,45.2,17.7,87.9,49.9,120.1c12.1,12.1,25.6,22.1,40.2,29.9H20
	c-11,0-20,9-20,20c0,27.6,22.4,50,50,50h412c27.6,0,50-22.4,50-50C512,435,503,426,492,426z M440.6,229.8
	c18.4-0.3,32.9-0.6,37.2,3.7c2.1,2,3.1,6.6,3.1,13.7c0,25.2-23.1,69-57.7,79.4c5.1-16.2,7.7-33.2,7.7-50.7v-46
	C434.4,229.9,437.6,229.9,440.6,229.8z M145.1,381.9c-28.4-28.4-44.1-66-44.1-105.9v-26h70c5.5,0,10-4.5,10-10s-4.5-10-10-10h-70
	v-24c0-5.5,4.5-10,10-10h195v35.6l-26.7,24.3c-2.1,1.9-3.3,4.6-3.3,7.4V336c0,5.5,4.5,10,10,10h60c5.5,0,10-4.5,10-10v-72.7
	c0-2.8-1.2-5.5-3.3-7.4L326,231.6V196h75c5.5,0,10,4.5,10,10v70c0,20.3-4,39.9-11.8,58.1c0,0,0,0,0,0c-0.2,0.6-0.5,1.1-0.7,1.7
	c0,0,0,0.1,0,0.1c-7.4,16.9-18.1,32.5-31.6,46c-28.4,28.4-66,44.1-105.9,44.1h-10C211.1,426,173.5,410.4,145.1,381.9z M316,249.5
	l20,18.2V326h-40v-58.3L316,249.5z M462,476H50c-16.5,0-30-13.5-30-30h472C492,462.5,478.5,476,462,476z"/>
</svg>
